<?xml version="1.0" encoding="utf-8"?>
<!-- Generator: Adobe Illustrator 18.1.1, SVG Export Plug-In . SVG Version: 6.00 Build 0)  -->
<!DOCTYPE svg PUBLIC "-//W3C//DTD SVG 1.1//EN" "http://www.w3.org/Graphics/SVG/1.1/DTD/svg11.dtd">
<svg version="1.1" id="Layer_1" xmlns="http://www.w3.org/2000/svg" xmlns:xlink="http://www.w3.org/1999/xlink" x="0px" y="0px"
	 viewBox="0 0 118 48" enable-background="new 0 0 118 48" xml:space="preserve">
<g>
	<g>
		<g>
			<path fill="#707070" d="M66.6,30.5c0-0.4-0.1-0.9-0.1-1.5v-4.5c0-2.9-0.9-4.7-2.8-5.3c-0.5-0.2-1.1-0.3-1.7-0.5v0
				c0.5-0.1,1-0.3,1.4-0.5c1.4-0.6,2.3-1.6,2.7-3.2c0.2-0.9,0.4-2,0.4-3c0-2.8-0.8-4.7-2.3-5.9C63.1,5.2,61,4.8,58,4.8h-7.7v27.4
				h5.6V21h1.7c0.5,0,0.9,0.1,1.4,0.1c1.4,0.3,2.1,1.4,2.1,3.4V29c0,0.5,0,1,0.1,1.7l0.2,1.4H67C66.8,31.4,66.6,30.9,66.6,30.5z
				 M60.1,16c-0.6,0.5-1.4,0.8-2.6,0.8h-1.7V8.9h1.7c0.5,0,0.9,0,1.2,0.1c1.1,0.2,1.8,0.9,2,2c0.1,0.6,0.2,1.2,0.2,1.8
				C60.9,14.5,60.7,15.5,60.1,16z"/>
		</g>
	</g>
	<rect x="69.8" y="4.8" fill="#707070" width="5.6" height="27.4"/>
	<path fill="#707070" d="M84.3,23.5v1c-0.1,2.6,0.9,3.9,3,3.9c1.7,0,2.7-0.7,3-2.2c0.1-0.4,0.2-0.8,0.2-1.2c0-0.6-0.1-1.1-0.4-1.6
		c-0.2-0.4-0.5-0.7-0.9-1l-0.8-0.6l-4.7-2.8c-0.9-0.5-1.6-1-2.3-1.6c-0.8-0.7-1.4-1.4-1.7-2.1c-0.4-0.9-0.6-2-0.6-3.3
		c0-5.1,2.8-7.7,8.5-7.7c4.7,0,7.3,1.6,7.9,4.9c0.2,0.9,0.2,1.8,0.2,2.7v1.1h-5.6v-0.9c0-0.6-0.1-1.1-0.1-1.7
		c-0.2-1.4-1-2.1-2.6-2.1c-1.8,0-2.7,1-2.8,2.9c0,0.7,0.1,1.3,0.4,1.7c0.2,0.4,0.7,0.8,1.4,1.3l1.2,0.8l4.6,2.7
		c0.6,0.4,1.2,0.8,1.7,1.2c0.8,0.7,1.3,1.3,1.6,2.1c0.4,0.9,0.6,2,0.6,3.4c0,4-1.5,6.4-4.6,7.4c-1.3,0.4-2.7,0.6-4.3,0.6
		c-1.5,0-2.8-0.2-4.1-0.5c-2.4-0.7-3.8-2.2-4.1-4.6c-0.2-0.9-0.2-1.8-0.2-2.9v-1H84.3z"/>
	<polygon fill="#707070" points="113.8,4.8 113.8,8.9 105.7,8.9 105.7,16 113.5,16 113.5,20.1 105.7,20.1 105.7,28 114,28 114,32.1 
		100.1,32.1 100.1,4.8 	"/>
	<polygon fill="#707070" points="50.3,35.6 52.2,35.6 53.5,41.9 53.5,41.9 55,35.6 56.8,35.6 54.5,44.3 52.4,44.3 	"/>
	<rect x="64" y="35.6" fill="#707070" width="1.8" height="8.6"/>
	<path fill="#707070" d="M75.6,44.4c-2.2,0-2.7-1.3-2.6-2.8h1.8c0,0.8,0,1.5,1,1.5c0.6,0,0.9-0.4,0.9-1c0-1.6-3.6-1.7-3.6-4.2
		c0-1.4,0.6-2.4,2.8-2.4c1.8,0,2.6,0.8,2.5,2.6h-1.8c0-0.6-0.1-1.3-0.8-1.3c-0.6,0-0.9,0.3-0.9,0.9c0,1.6,3.6,1.5,3.6,4.2
		C78.6,44.2,76.9,44.4,75.6,44.4z"/>
	<rect x="85.7" y="35.6" fill="#707070" width="1.8" height="8.6"/>
	<g>
		<path fill="#707070" d="M97.5,35.5c-3,0-3,2.2-3,4.5c0,2.3,0,4.5,3,4.5c3,0,3-2.2,3-4.5C100.5,37.7,100.5,35.5,97.5,35.5z
			 M97.5,43.1c-1,0-1.1-1-1.1-3.2c0-2.2,0.1-3.2,1.1-3.2c1,0,1.1,1,1.1,3.2C98.7,42.2,98.5,43.1,97.5,43.1z"/>
	</g>
	<polygon fill="#707070" points="107.6,44.3 107.6,35.6 110,35.6 112.3,41.6 112.3,41.6 112.3,35.6 114,35.6 114,44.3 111.6,44.3 
		109.3,38 109.3,38 109.3,44.3 	"/>
	<g>
		<path fill="#707070" d="M4,44.3h29.4l0.1-10.7h10.6L33.4,44.3h10.7V4.2L4,44.3z M23.2,42.7v-7.6l7.2,0L23.2,42.7z M34.9,30.8v-7.6
			l7.2,0L34.9,30.8z"/>
	</g>
</g>
</svg>
