<?xml version="1.0" encoding="utf-8"?>
<!-- Generator: Adobe Illustrator 18.1.1, SVG Export Plug-In . SVG Version: 6.00 Build 0)  -->
<!DOCTYPE svg PUBLIC "-//W3C//DTD SVG 1.1//EN" "http://www.w3.org/Graphics/SVG/1.1/DTD/svg11.dtd">
<svg version="1.1" id="Layer_1" xmlns="http://www.w3.org/2000/svg" xmlns:xlink="http://www.w3.org/1999/xlink" x="0px" y="0px"
	 viewBox="0 0 660 396" enable-background="new 0 0 660 396" xml:space="preserve">
<g>
	<polygon fill-rule="evenodd" clip-rule="evenodd" fill="#122518" points="595.2,96.4 599.2,123.4 601.2,108 	"/>
	<polygon fill-rule="evenodd" clip-rule="evenodd" fill="#122518" points="158.9,218.2 165.5,216.7 148.4,210.1 	"/>
	<polygon fill-rule="evenodd" clip-rule="evenodd" fill="#122518" points="176.1,220.3 166.7,217.8 169,222.6 	"/>
	<polygon fill-rule="evenodd" clip-rule="evenodd" fill="#122518" points="594.9,282 589.8,298.1 576.3,283.4 568.5,290.5 
		564.4,289 535.1,305.9 535.1,338 608.3,309.6 600.4,296.6 	"/>
	<polygon fill-rule="evenodd" clip-rule="evenodd" fill="#122518" points="189.3,352.8 173.4,374.6 190.6,390 	"/>
	<polygon fill-rule="evenodd" clip-rule="evenodd" fill="#122518" points="187.9,236.4 158.3,238 158.3,238 137.8,226.2 157.9,245 
		158.2,239.9 157.6,252.7 148.5,276.2 172.6,295.4 172.6,295.4 172.9,333.5 173.4,374.6 216.1,316.1 216.1,316.1 220.4,307.6 
		232.5,303.8 239.4,269.5 213.8,256.6 	"/>
	<path fill-rule="evenodd" clip-rule="evenodd" fill="#122518" d="M289.3,188.5l-12.7,41.2l14.9,20l23-4.2l14.7,6.2v0h0l0,0h0
		l9,34.3l30.1-20.6l0,0l-30,20.6l-3.9,11.8l12.9,33.4l0.1-0.4l-0.1,0.4l17.9-3.7l14.5-19.3l-2.9-9.4l14.5-10.7l-3.1-17.5l23.6-35
		l0,0l-82.3,16l0,0l69.2-13.5l-29.9-45.5l-43.3-12.1L289.3,188.5z M376.6,298.8L376.6,298.8l11.3-28.1l0,0L376.6,298.8z"/>
	<polygon fill-rule="evenodd" clip-rule="evenodd" fill="#122518" points="396.9,293.3 398.4,298.4 394.5,309.9 401.9,310.3 
		410.3,288.7 408.1,283.6 	"/>
	<polygon fill-rule="evenodd" clip-rule="evenodd" fill="#122518" points="564.6,326.6 585.9,352.1 597.9,351.7 613.5,320.2 
		608.3,309.6 	"/>
	<polygon fill-rule="evenodd" clip-rule="evenodd" fill="#122518" points="585.8,363.3 589.4,367.9 593.1,359.2 586.7,358.4 	"/>
	<path fill-rule="evenodd" clip-rule="evenodd" fill="#122518" d="M136,224.5l4.3-10.3l-7,0.5l-2.7,4.7l-11.9-11.1l-3.8,13.5l0,0
		l9-32.3l0,0l-2.5,9.1l28.3-4.6l0.1,0l0,0l0,0l0,0l0,0l2.9,12.7l3.1-17l57.9-41.4l-15.1-33.2l-19.5-11.8l-8.3,31.6l-0.2,0.2
		l-23.5-20.9l0,0l22.2-44l0,0l-15.4,30.6l29.1-21.6l-13.6-9l0,0l0,0l0,0l0,0l-37.5-32.1l-12.6,16.2l-53-16.8L44.5,44l0,0L22.8,76.3
		l10,21.5L5,112.5l26.3-9.9l17.8-16.4l25.4,14.2l4.4,32.7L74,181l10.7,11.2l10.3,18l-4.9-12.3l11.7,12.3l-0.2,9.5l12.9,3.8
		l43.4,21.6L131,219.9L136,224.5z M148.3,151.1l1.5,43l0,0l-1.5-44L148.3,151.1z"/>
	<polygon fill-rule="evenodd" clip-rule="evenodd" fill="#122518" points="226.1,53.6 231.4,86.3 222.5,103.1 232.2,118.3 248.6,94 
		275.2,84.8 275.3,72.2 295,29.3 275.7,10.3 239.2,17.4 210.3,41.9 	"/>
	<polygon fill-rule="evenodd" clip-rule="evenodd" fill="#122518" points="183,54.7 171.3,69.7 203,84.3 195.9,59.1 	"/>
	<polygon fill-rule="evenodd" clip-rule="evenodd" fill="#122518" points="198.6,109 210.8,92.7 203,84.3 190.5,78.5 193.4,89.3 
		180.7,97.1 	"/>
	<polygon fill-rule="evenodd" clip-rule="evenodd" fill="#122518" points="287.8,104.6 286.6,99 270.3,102.4 278.3,109.6 	"/>
	<polygon fill-rule="evenodd" clip-rule="evenodd" fill="#122518" points="191.6,52.7 237.5,12.6 225.7,4.5 200.2,10 171.1,18.8 
		176,50.1 	"/>
	<path fill-rule="evenodd" clip-rule="evenodd" fill="#122518" d="M531.2,37l-10.9,1.1l-1.2,7.2l-1.6,1.1l-14.1,1l-5-7.3L467.3,50
		l4.6-16.1L449,29.2L467.3,50h0L449,29.2l-23.8,64.7l0,0l-8.6-28.8l-20.9,24.5l0,0l0,0l-16.1,0l-10,16.8L350.9,82l-21.4,17.2
		l20.8,3.2l-5.3,14.6l16.7,2.6l0,0v0l-11.2,2L347,130l-12.6,8.8l-5.5,1l-4.3-10l-6,11.8l-18.1,15.7l41.2,17.1l-9.8-13.9l30,11.7l0-6
		l8.5-8.4l18,11.7l-25.6,0.9l-2.3,10.4l17.7,0.5l-9.7,11.3l7.9,7.6l22.6,31.9l3.4-35.1l0,0l-3.4,35.1l17.7-7.2l12.7-14.2l-21-1.8
		l-6.1-11.9l26.3,8.6l0,0l17.2,4.3l20.8,32.6l13.1-24.2l-1.2-0.3l1.2,0.3l0,0l16-45.6L483.4,208l10.4-0.5l2.8,17.3l7-2.4l-9.8-14.9
		l0,0l9.8,14.9l4.1,20.5l0,0l0,0l0,0l0,0l0,0l0,0l0,0l10.5,12.3l-1.2-8.5l-9.3-3.8l0,0l5.6,2.2l-4.8-7.2l1-6.7l12.8,8.7l6.6-7
		l-5.6-12.3l20.2-15.4l6.1-13.1l-8.3-12.9l-5.5-65.7l0,0l4.2,50.4l26.2-11.1l4.1-18.4l-5.2-17l-11.8-1.7l3.2-17.4l0,0l0,0l19.4-2
		l5.3-16.2l10,0.6l-2.9,16.5l0,0l-2,10.2l13,16l-5-33.4l7.1-8.7l4.1,4l9.9-51.7l-44.5,7.5L531.2,37z M404,179.7L404,179.7l-3.9-22.5
		l5.2-3.6l12.8,28.6l-0.1,0.1L404,179.7z M426.5,136.6l6.9,10.5l0,0L426.5,136.6z M413.4,116.7L413.4,116.7l29.8-20.2h0L413.4,116.7
		z M395.9,132.8L395.9,132.8L394,132L395.9,132.8z M331.9,160.6L331.9,160.6l16.4-22.5l-0.1,0.1L331.9,160.6z M428.5,205.3l0.1,0.3
		l0,0L428.5,205.3z M433.9,147.9l18,27.4l26.6,40.9L433.9,147.9z"/>
	<polygon fill-rule="evenodd" clip-rule="evenodd" fill="#122518" points="429.9,81.1 449,29.2 419.9,65.1 	"/>
	<polygon fill-rule="evenodd" clip-rule="evenodd" fill="#122518" points="557.3,156.7 540,164.1 559.7,180 	"/>
	<polygon fill-rule="evenodd" clip-rule="evenodd" fill="#122518" points="579.7,39.6 615.2,33.7 574.6,33.6 	"/>
	<polygon fill-rule="evenodd" clip-rule="evenodd" fill="#122518" points="371.2,99.2 375.3,91.9 350.9,82 361.4,95.7 	"/>
	<polygon fill-rule="evenodd" clip-rule="evenodd" fill="#122518" points="315.9,116.6 325.7,125.3 335.9,133.9 343.5,101.4 
		329.5,99.3 328.4,106.9 	"/>
	<polygon fill-rule="evenodd" clip-rule="evenodd" fill="#122518" points="320.4,128.4 325.7,125.3 319.6,119.9 	"/>
	<polygon fill-rule="evenodd" clip-rule="evenodd" fill="#122518" points="352.8,180.5 361.9,172.2 341.2,164.2 	"/>
	<polygon fill-rule="evenodd" clip-rule="evenodd" fill="#122518" points="318.7,164.9 300.4,157.3 303.3,180.4 	"/>
	<polygon fill-rule="evenodd" clip-rule="evenodd" fill="#122518" points="291.9,168.5 292.9,180.7 303.3,180.4 301.4,165.2 	"/>
	<polygon fill-rule="evenodd" clip-rule="evenodd" fill="#122518" points="311.1,146.5 312.8,141.6 301.7,124.7 302.1,149.3 	"/>
	<polygon fill-rule="evenodd" clip-rule="evenodd" fill="#122518" points="290.8,144.6 298.9,142.6 298.2,134.5 292.3,137.7 	"/>
	<polygon fill-rule="evenodd" clip-rule="evenodd" fill="#122518" points="543.6,262.3 548,247.2 544.2,244.5 	"/>
	<polygon fill-rule="evenodd" clip-rule="evenodd" fill="#122518" points="533,265.8 543.4,267.3 544.2,244.5 528.9,257.5 	"/>
	<polygon fill-rule="evenodd" clip-rule="evenodd" fill="#122518" points="501,247.7 520.6,272.2 522.6,263.4 	"/>
	<polygon fill-rule="evenodd" clip-rule="evenodd" fill="#122518" points="564.3,274.9 522.2,273.2 555.3,281.1 	"/>
	<polygon fill-rule="evenodd" clip-rule="evenodd" fill="#122518" points="594.7,278.9 609.3,280 601.7,267.9 570.7,259.5 	"/>
	<polygon fill-rule="evenodd" clip-rule="evenodd" fill="#122518" points="645.7,342.8 645.8,366.7 655,354.9 	"/>
	<polygon fill-rule="evenodd" clip-rule="evenodd" fill="#122518" points="628.8,382.9 641.9,364 622.9,378.7 	"/>
	<polygon fill-rule="evenodd" clip-rule="evenodd" fill="#122518" points="153.1,23.7 137.1,28.7 140.7,35.4 	"/>
	<polygon fill-rule="evenodd" clip-rule="evenodd" fill="#122518" points="158.6,31.6 144.8,42.6 161.4,42 	"/>
	<polygon fill-rule="evenodd" clip-rule="evenodd" fill="#122518" points="147.2,31.8 144.8,42.6 153,36.1 	"/>
	<polygon fill-rule="evenodd" clip-rule="evenodd" fill="#122518" points="567.2,116.8 576.5,144.3 576,129.5 	"/>
	<polygon fill-rule="evenodd" clip-rule="evenodd" fill="#122518" points="576.7,147.2 577.3,159.4 586.2,150.5 	"/>
	<polygon fill-rule="evenodd" clip-rule="evenodd" fill="#122518" points="581.9,159.2 578,160.5 573.2,182.6 583.3,175.6 	"/>
	<polygon fill-rule="evenodd" clip-rule="evenodd" fill="#122518" points="563,184.5 573.2,182.6 575.3,172.8 	"/>
	<polygon fill-rule="evenodd" clip-rule="evenodd" fill="#122518" points="546.7,210 551.3,212.1 549.7,203.6 	"/>
	<polygon fill-rule="evenodd" clip-rule="evenodd" fill="#122518" points="549.5,229.1 560.6,235.3 550.7,219.1 	"/>
	<polygon fill-rule="evenodd" clip-rule="evenodd" fill="#122518" points="562.2,239.3 553.8,243.4 561.6,247.1 	"/>
	<polygon fill-rule="evenodd" clip-rule="evenodd" fill="#122518" points="550.5,271 556.8,260.5 549.1,262.3 	"/>
	<polygon fill-rule="evenodd" clip-rule="evenodd" fill="#122518" points="175.5,99.8 168.8,92.1 166.3,101 	"/>
	<polygon fill-rule="evenodd" clip-rule="evenodd" fill="#122518" points="166.4,62.6 177.5,53.3 170.4,50.8 	"/>
	<polygon fill-rule="evenodd" clip-rule="evenodd" fill="#122518" points="165.8,50.7 156,54.7 163.1,62.3 	"/>
	<polygon fill-rule="evenodd" clip-rule="evenodd" fill="#122518" points="156.5,48.7 149.8,48.8 152.3,53.6 	"/>
	<polygon fill-rule="evenodd" clip-rule="evenodd" fill="#122518" points="171.2,47 169.4,35.2 163.7,40.5 	"/>
	<polygon fill-rule="evenodd" clip-rule="evenodd" fill="#122518" points="164.4,20.1 156.2,25 160.3,28.1 	"/>
	<polygon fill-rule="evenodd" clip-rule="evenodd" fill="#122518" points="392.1,68.2 404.7,49 402.4,45.7 391.4,56.8 386.7,76.5 
		396.7,79.7 	"/>
	<polygon fill-rule="evenodd" clip-rule="evenodd" fill="#122518" points="334.9,43.3 321.6,40.3 332.1,57.8 	"/>
	<polygon fill-rule="evenodd" clip-rule="evenodd" fill="#122518" points="343.9,36.8 331.3,34.9 339.1,43.1 	"/>
	<polygon fill-rule="evenodd" clip-rule="evenodd" fill="#122518" points="340.1,54.3 342.9,47.8 335.8,45.7 	"/>
	<polygon fill-rule="evenodd" clip-rule="evenodd" fill="#122518" points="422.5,11.2 422.2,21.8 438.8,25.9 	"/>
	<polygon fill-rule="evenodd" clip-rule="evenodd" fill="#122518" points="447.1,24.9 440,20.4 441.6,30.1 	"/>
	<polygon fill-rule="evenodd" clip-rule="evenodd" fill="#122518" points="513.9,20.9 498.4,20.8 507.6,30.3 	"/>
	<polygon fill-rule="evenodd" clip-rule="evenodd" fill="#122518" points="515.3,31.1 514.3,36.3 521.1,35.1 	"/>
	<polygon fill-rule="evenodd" clip-rule="evenodd" fill="#122518" points="471.2,247.5 474.1,244.2 470.4,239.4 	"/>
</g>
</svg>
